<mxfile host="app.diagrams.net" modified="2024-03-22T18:05:34.944Z" agent="Mozilla/5.0 (Windows NT 10.0; Win64; x64) AppleWebKit/537.36 (KHTML, like Gecko) Chrome/123.0.0.0 Safari/537.36" etag="u44SvP8LDFO3opV9XDeC" version="24.0.8" type="github">
  <diagram name="Page-1" id="1t45z_ChP7yFxSQZ-QtJ">
    <mxGraphModel dx="1221" dy="657" grid="1" gridSize="10" guides="1" tooltips="0" connect="1" arrows="1" fold="1" page="1" pageScale="1" pageWidth="850" pageHeight="1100" math="0" shadow="0">
      <root>
        <mxCell id="0" />
        <mxCell id="1" parent="0" />
        <mxCell id="GdaAvqGxbWAvdyCPO8Sm-3" value="&lt;font style=&quot;font-size: 20px;&quot;&gt;Список жалоб&lt;/font&gt;" style="shape=ext;double=1;rounded=1;whiteSpace=wrap;html=1;fillColor=#DDA7A2;strokeColor=#DDA7A2;" parent="1" vertex="1">
          <mxGeometry x="80" y="200" width="200" height="80" as="geometry" />
        </mxCell>
        <mxCell id="GdaAvqGxbWAvdyCPO8Sm-4" value="&lt;font style=&quot;font-size: 18px;&quot;&gt;Проработанный список&lt;/font&gt;" style="shape=ext;double=1;rounded=1;whiteSpace=wrap;html=1;fillColor=#EEBFA0;strokeColor=#EEBFA0;" parent="1" vertex="1">
          <mxGeometry x="520" y="200" width="220" height="80" as="geometry" />
        </mxCell>
        <mxCell id="GdaAvqGxbWAvdyCPO8Sm-6" value="&lt;font style=&quot;font-size: 17px;&quot;&gt;1001 -&amp;gt; 10&lt;/font&gt;" style="whiteSpace=wrap;html=1;shape=mxgraph.basic.cloud_callout" parent="1" vertex="1">
          <mxGeometry x="310" y="195" width="160" height="90" as="geometry" />
        </mxCell>
        <mxCell id="o2Jhxvb6s8QDH7BrwUHY-3" value="" style="endArrow=classic;html=1;rounded=0;exitX=1;exitY=0.5;exitDx=0;exitDy=0;" edge="1" parent="1" source="GdaAvqGxbWAvdyCPO8Sm-3">
          <mxGeometry width="50" height="50" relative="1" as="geometry">
            <mxPoint x="360" y="250" as="sourcePoint" />
            <mxPoint x="310" y="240" as="targetPoint" />
          </mxGeometry>
        </mxCell>
        <mxCell id="o2Jhxvb6s8QDH7BrwUHY-11" value="" style="endArrow=classic;html=1;rounded=0;entryX=0;entryY=0.5;entryDx=0;entryDy=0;exitX=0.989;exitY=0.503;exitDx=0;exitDy=0;exitPerimeter=0;" edge="1" parent="1" source="GdaAvqGxbWAvdyCPO8Sm-6" target="GdaAvqGxbWAvdyCPO8Sm-4">
          <mxGeometry width="50" height="50" relative="1" as="geometry">
            <mxPoint x="470" y="230" as="sourcePoint" />
            <mxPoint x="520" y="230" as="targetPoint" />
          </mxGeometry>
        </mxCell>
      </root>
    </mxGraphModel>
  </diagram>
</mxfile>
